<?xml version="1.0" encoding="UTF-8"?>
<svg width="24px" height="24px" viewBox="0 0 24 24" version="1.1" xmlns="http://www.w3.org/2000/svg" xmlns:xlink="http://www.w3.org/1999/xlink">
    <title>D9203088-2BC6-4D71-B4A6-1C05C91E2B0F</title>
    <g id="Design" stroke="none" stroke-width="1" fill="none" fill-rule="evenodd">
        <g id="08_Blog_Detail_Page" transform="translate(-173.000000, -2499.000000)">
            <g id="Twitter_Logo" transform="translate(173.000000, 2499.000000)">
                <rect id="Rectangle" x="0" y="0" width="24" height="24"></rect>
                <g id="icon-behance-2" transform="translate(0.631579, 3.157895)" fill="#DDDDDD">
                    <path d="M23.2052211,2.14502433 C22.3511032,2.52040193 21.4305189,2.76707343 20.4764528,2.88505541 C21.4525639,2.31662694 22.2068993,1.41571407 22.5619392,0.332477777 C21.6411892,0.868733861 20.6206567,1.24411146 19.5447632,1.45861389 C18.6684346,0.536254426 17.4372319,0 16.0395482,0 C13.432856,0 11.303114,2.05921474 11.303114,4.60106493 C11.303114,4.9657184 11.3474857,5.31964775 11.4251403,5.65212884 C7.47625812,5.45907798 3.95997097,3.62508648 1.61948409,0.847282291 C1.20906661,1.52296529 0.976127624,2.31662694 0.976127624,3.15317516 C0.976127624,4.75121929 1.80805137,6.16693667 3.09476431,6.97131251 C2.30721225,6.97131251 1.57511571,6.75681339 0.931757583,6.43505643 C0.931757583,6.43505643 0.931757583,6.43505643 0.931757583,6.46722881 C0.931757583,8.69806273 2.57342586,10.5642266 4.74752302,10.9825007 C4.3482109,11.0897586 3.92668806,11.1433792 3.49409301,11.1433792 C3.19459648,11.1433792 2.89509995,11.1112068 2.60670878,11.0575862 C3.20568526,12.8701294 4.94718738,14.2214855 7.0436465,14.2536579 C5.4241707,15.4977726 3.37208327,16.2270796 1.13142028,16.2270796 C0.754280738,16.2270796 0.37713954,16.2056313 0,16.1627348 C2.1075479,17.4712109 4.61442451,18.2326737 7.29877133,18.2326737 C16.0395482,18.2326737 20.842598,11.2184647 20.842598,5.13732101 C20.842598,4.93354602 20.842598,4.74049516 20.8314927,4.53672017 C21.7631823,3.89320624 22.5619392,3.07810627 23.2052211,2.14502433 Z" id="icon-twitter"></path>
                </g>
            </g>
        </g>
    </g>
</svg>